<?xml version="1.0" standalone="no"?>
<!DOCTYPE svg PUBLIC "-//W3C//DTD SVG 20010904//EN"
 "http://www.w3.org/TR/2001/REC-SVG-20010904/DTD/svg10.dtd">
<svg version="1.0" xmlns="http://www.w3.org/2000/svg"
 width="500.000000pt" height="500.000000pt" viewBox="0 0 500.000000 500.000000"
 preserveAspectRatio="xMidYMid meet">
<metadata>
Created by potrace 1.16, written by Peter Selinger 2001-2019
</metadata>
<g transform="translate(0.000000,500.000000) scale(0.100000,-0.100000)"
fill="#000000" stroke="none">
<path d="M1200 3885 l0 -505 1090 0 1090 0 0 -1090 0 -1090 505 0 505 0 0
1595 0 1595 -1595 0 -1595 0 0 -505z"/>
<path d="M850 2670 l0 -450 695 0 695 0 0 -695 0 -695 450 0 450 0 0 1145 0
1145 -1145 0 -1145 0 0 -450z"/>
<path d="M610 1295 l0 -685 685 0 685 0 0 685 0 685 -685 0 -685 0 0 -685z"/>
</g>
</svg>
